<svg width="64" height="34" viewBox="0 0 64 34" fill="none" xmlns="http://www.w3.org/2000/svg">
<path d="M9.8055 9.67535C11.6008 9.67535 13.1953 9.99632 14.5838 10.6422H14.5828C16.0035 11.2564 17.1678 12.1942 18.0721 13.4537L18.1512 13.565L15.1658 16.5504L15.0535 16.4048C14.4352 15.601 13.6624 14.9835 12.7342 14.5504L12.7323 14.5494C11.8375 14.1175 10.8155 13.899 9.66292 13.899C8.44202 13.899 7.52689 14.1186 6.89827 14.5377L6.89729 14.5396C6.30925 14.9218 6.01945 15.4569 6.01936 16.1636C6.01936 16.8778 6.28341 17.4143 6.80843 17.7935C7.36043 18.1921 8.08751 18.5342 8.99495 18.816H8.99593C9.94794 19.1016 10.9317 19.403 11.9471 19.7203H11.9461C12.9716 20.009 13.9492 20.4096 14.8787 20.9224C15.8192 21.4413 16.5826 22.1398 17.1678 23.0162C17.7949 23.9074 18.1024 25.0691 18.1024 26.4869C18.1024 28.6551 17.3222 30.3827 15.7596 31.6529C14.2322 32.9203 12.1788 33.5464 9.61604 33.5464C8.33391 33.5464 7.11359 33.3853 5.95686 33.064L5.95198 33.063C4.82909 32.7101 3.78573 32.228 2.8221 31.6177L2.81819 31.6158C1.85409 30.973 1.01751 30.2172 0.309402 29.3482L0.217606 29.2349L0.320145 29.1314L3.07893 26.3726L3.20589 26.2466L3.31917 26.3853C4.12882 27.3817 5.05969 28.1265 6.11214 28.6226H6.11311C7.16824 29.0881 8.35061 29.3228 9.66292 29.3228C10.9778 29.3228 11.9733 29.1028 12.6668 28.6822C13.3535 28.2343 13.6882 27.634 13.6883 26.8677C13.6883 26.0884 13.4061 25.5045 12.8494 25.0943L12.8416 25.0884V25.0875C12.2913 24.6291 11.5665 24.2579 10.6619 23.9771L10.6571 23.9752C9.7411 23.6593 8.76107 23.3593 7.71761 23.0748L7.71175 23.0728C6.68835 22.753 5.71213 22.3537 4.78401 21.8736C3.84253 21.3866 3.06263 20.7195 2.44514 19.8746L2.44221 19.8716C1.84704 19.0119 1.55745 17.8816 1.55745 16.4966C1.5575 15.1058 1.8973 13.8998 2.58382 12.8863C3.26741 11.8453 4.21155 11.0492 5.40999 10.4986H5.41096C6.64158 9.94806 8.10809 9.6754 9.8055 9.67535ZM60.4666 27.1304C61.3656 27.1304 62.1078 27.4356 62.6785 28.0494C63.2711 28.642 63.5662 29.395 63.5662 30.2945C63.5662 31.1523 63.27 31.8904 62.6824 32.5015L62.6834 32.5025C62.1121 33.1194 61.3679 33.4254 60.4666 33.4254C59.5857 33.4253 58.844 33.1183 58.2528 32.5045C57.6639 31.8929 57.368 31.1533 57.368 30.2945C57.368 29.395 57.6621 28.642 58.2547 28.0494C58.8456 27.437 59.5867 27.1305 60.4666 27.1304ZM27.2244 10.1509V33.0699H22.6199V10.1509H27.2244ZM41.7869 9.24469C43.5378 9.15715 45.1193 9.21479 46.4998 9.44977H46.5018C48.1803 9.75249 49.6366 10.3155 50.7674 11.1441L50.9891 11.313C51.8797 12.0255 52.5642 12.8887 53.0399 13.9293C53.5159 14.9708 53.7518 16.1854 53.7518 17.5113C53.7518 18.9504 53.182 20.4081 52.0614 21.8238C51.6393 22.3859 51.1118 22.9167 50.536 23.4429C52.1313 26.4344 52.5936 29.6476 52.9666 32.8902L52.9871 33.0699H48.741L48.7235 32.9283C48.5457 31.4812 48.369 30.2402 48.0379 28.9097L47.8856 28.3326C47.6423 27.4407 47.348 26.6275 46.9813 25.8677C46.0259 26.3887 44.998 26.8296 43.9959 27.1636L43.9969 27.1646C42.3595 27.7202 40.7436 28.0444 39.3553 28.0445C38.6406 28.0445 37.97 27.9726 37.366 27.8287V33.0699H32.9764V10.7857L33.1043 10.7584L34.7606 10.4097C34.7934 10.3972 34.8219 10.3873 34.8416 10.3824C34.8724 10.3747 34.8845 10.3702 34.8953 10.3648L34.9129 10.356L34.9324 10.3521C36.0932 10.0909 38.8066 9.44904 41.784 9.24469H41.7869ZM42.203 21.4673C40.654 20.8939 39.0989 20.7315 38.1287 21.0054C37.9036 21.0901 37.7358 21.1739 37.6131 21.2964C37.4947 21.4148 37.4062 21.5824 37.366 21.857V22.5777C37.4074 22.8779 37.4805 23.0661 37.5506 23.1851C37.5853 23.2439 37.6201 23.2883 37.6522 23.3218L37.7371 23.3961L37.743 23.4L37.8592 23.48C38.1611 23.6584 38.6761 23.7701 39.3553 23.7701C40.7378 23.77 42.4965 23.3017 44.2069 22.483C43.6253 22.0926 42.938 21.7472 42.203 21.4683V21.4673ZM48.3455 14.6441C47.1723 13.7534 45.0166 13.3158 42.0682 13.5181H42.0672C40.3092 13.6297 38.6031 13.9317 37.366 14.1871V16.8101C37.9581 16.6667 38.5758 16.5943 39.2391 16.5943C39.4173 16.5943 39.5881 16.6018 39.7576 16.6129L40.2694 16.6529L40.2723 16.6539C41.389 16.7714 42.5655 17.0355 43.6844 17.4771H43.6834C45.332 18.0745 46.8166 18.9748 47.952 19.9937C48.2499 19.7157 48.5026 19.4596 48.7303 19.1812C49.2459 18.5217 49.5067 17.9487 49.5067 17.5113C49.5067 16.6523 49.3625 15.4679 48.3465 14.6441H48.3455ZM24.9217 0.161682C25.7537 0.161682 26.4464 0.445701 26.9862 1.01715C27.5258 1.55682 27.7948 2.23367 27.7948 3.03473C27.7947 3.86534 27.5277 4.57188 26.9901 5.14313L26.9862 5.14606C26.4452 5.68706 25.7524 5.95465 24.9217 5.95465C24.0911 5.9546 23.3982 5.68701 22.8573 5.14606L22.8543 5.14313C22.3167 4.57188 22.0487 3.86534 22.0487 3.03473C22.0487 2.23367 22.3176 1.55682 22.8573 1.01715C23.397 0.44559 24.0897 0.161739 24.9217 0.161682Z" fill="#1D1D1D" stroke="black" stroke-width="0.322803"/>
</svg>
